<?xml version="1.0" standalone="no"?>
<!DOCTYPE svg PUBLIC "-//W3C//DTD SVG 20010904//EN"
 "http://www.w3.org/TR/2001/REC-SVG-20010904/DTD/svg10.dtd">
<svg version="1.0" xmlns="http://www.w3.org/2000/svg"
 width="800.000000pt" height="800.000000pt" viewBox="0 0 800.000000 800.000000"
 preserveAspectRatio="xMidYMid meet">

<g transform="translate(0.000000,800.000000) scale(0.100000,-0.100000)"
fill="#000000" stroke="none">
<path d="M1153 7531 c-58 -27 -74 -57 -84 -155 -5 -46 -16 -106 -25 -132 -65
-197 -240 -339 -449 -365 -111 -14 -149 -29 -175 -71 -20 -33 -20 -54 -20
-1783 0 -1695 1 -1751 19 -1781 22 -36 75 -64 123 -64 67 0 154 -22 228 -57
170 -81 300 -280 300 -457 0 -63 22 -111 62 -136 32 -20 45 -20 625 -18 l592
3 30 29 c71 68 55 177 -32 217 -39 17 -73 19 -529 19 l-487 0 -11 43 c-73 293
-297 524 -579 597 l-66 18 -3 1589 -2 1589 69 17 c275 71 504 301 576 580 l18
67 2667 0 2667 0 18 -67 c72 -279 301 -509 576 -580 l69 -17 -2 -1589 -3
-1589 -66 -18 c-282 -73 -506 -304 -579 -597 l-11 -43 -272 0 c-150 0 -288 -5
-308 -10 -111 -31 -133 -181 -36 -240 30 -19 53 -20 407 -20 349 0 377 1 406
19 38 23 64 76 64 133 1 116 58 252 146 348 92 98 204 151 355 168 97 11 135
30 155 79 12 27 14 326 14 1775 0 1722 0 1743 -20 1776 -26 42 -64 57 -175 71
-120 15 -233 69 -315 151 -98 98 -144 198 -159 345 -10 99 -26 129 -84 156
-41 18 -116 19 -2847 19 -2731 0 -2806 -1 -2847 -19z"/>
<path d="M1773 6910 c-34 -15 -48 -30 -72 -77 -119 -236 -344 -465 -567 -576
-28 -14 -63 -40 -78 -57 l-26 -32 0 -1136 c0 -1315 -13 -1172 117 -1242 222
-118 435 -335 546 -556 14 -28 40 -63 57 -78 l32 -26 362 0 c353 0 364 1 390
21 58 46 72 122 33 180 -39 58 -45 59 -359 59 l-287 0 -57 86 c-143 217 -333
404 -527 517 l-47 28 0 1004 0 1004 98 64 c193 128 341 278 464 469 l63 97
2085 0 2085 0 63 -97 c123 -191 271 -341 465 -469 l97 -64 0 -1005 0 -1005
-31 -17 c-70 -38 -204 -139 -284 -214 -96 -90 -177 -188 -259 -312 l-57 -86
-58 0 c-75 0 -120 -28 -141 -88 -13 -37 -13 -47 0 -84 10 -27 27 -50 49 -65
31 -21 45 -23 162 -23 123 0 129 1 159 26 17 15 43 50 57 78 111 221 324 438
546 556 130 70 117 -73 117 1242 l0 1136 -26 32 c-15 17 -50 43 -78 57 -223
111 -448 340 -567 576 -24 47 -38 62 -72 77 -41 19 -99 20 -2227 20 -2128 0
-2186 -1 -2227 -20z"/>
<path d="M2035 6216 c-101 -45 -114 -180 -22 -236 31 -20 66 -20 1987 -20
1921 0 1956 0 1987 20 93 56 79 192 -24 236 -47 20 -3883 20 -3928 0z"/>
<path d="M2013 5520 c-84 -51 -82 -171 4 -227 26 -17 115 -18 1983 -18 1868 0
1957 1 1983 18 86 56 88 176 4 227 -31 20 -66 20 -1987 20 -1921 0 -1956 0
-1987 -20z"/>
<path d="M2045 4846 c-48 -21 -68 -51 -72 -109 -5 -62 9 -93 56 -124 l34 -23
651 0 c628 0 652 1 683 20 47 28 66 63 65 117 -2 55 -23 90 -73 115 -31 17
-84 18 -674 18 -509 -1 -646 -3 -670 -14z"/>
<path d="M4127 4816 c-33 -8 -92 -31 -133 -51 -90 -46 -182 -139 -233 -235
-77 -144 -152 -190 -314 -190 -191 -1 -318 -49 -432 -164 -187 -188 -213 -438
-73 -683 92 -159 91 -203 -6 -395 -84 -168 -99 -246 -73 -379 53 -268 268
-449 534 -449 40 0 73 -2 73 -5 0 -3 -18 -74 -39 -158 -22 -83 -99 -386 -171
-672 -72 -286 -149 -588 -171 -672 -45 -174 -46 -196 -19 -240 26 -43 63 -66
108 -66 21 0 259 74 547 168 281 93 517 168 525 167 9 0 207 -63 440 -140 669
-221 616 -206 668 -186 81 31 99 95 63 235 -11 41 -65 254 -121 474 -56 220
-139 549 -186 731 -46 182 -84 338 -84 347 0 14 11 17 68 17 149 0 277 54 383
161 104 104 159 234 159 378 0 102 -22 176 -92 311 -56 107 -61 121 -61 183
-1 59 4 75 38 139 73 137 85 163 101 228 22 87 15 223 -16 305 -53 139 -146
243 -275 305 -90 44 -169 60 -294 60 -155 0 -208 31 -298 174 -105 169 -185
240 -323 286 -80 28 -212 34 -293 16z m253 -292 c55 -30 60 -36 158 -186 121
-186 274 -268 499 -268 127 0 193 -22 255 -84 79 -79 101 -216 51 -311 -115
-221 -123 -244 -123 -373 0 -106 20 -174 90 -308 53 -101 60 -121 60 -172 0
-31 -5 -74 -10 -94 -15 -53 -67 -117 -123 -152 -44 -27 -57 -30 -191 -37 -153
-8 -230 -27 -316 -77 -76 -44 -158 -131 -216 -228 -87 -148 -154 -191 -286
-182 -118 8 -171 47 -253 189 -80 139 -200 237 -339 276 -28 8 -112 17 -186
22 -151 8 -189 20 -247 80 -57 58 -76 106 -77 187 -1 69 1 76 67 205 61 120
69 143 79 224 9 76 9 103 -5 170 -16 76 -31 113 -105 250 -65 121 -51 236 41
330 65 67 120 85 256 85 178 0 298 47 412 160 37 37 85 100 111 145 83 143
151 188 279 181 50 -2 79 -10 119 -32z m-611 -2461 c107 -184 274 -283 478
-283 202 0 369 98 477 279 26 45 50 81 52 79 3 -4 71 -266 238 -926 66 -259
100 -412 93 -412 -7 0 -172 53 -367 118 l-355 117 -5 252 c-5 251 -5 251 -30
279 -34 37 -85 57 -124 48 -48 -10 -94 -50 -106 -92 -5 -20 -10 -138 -10 -263
l0 -225 -361 -118 c-198 -65 -363 -115 -366 -113 -3 3 29 140 71 304 42 164
118 463 169 666 50 202 94 367 97 367 3 0 25 -35 49 -77z"/>
<path d="M4128 4030 c-221 -37 -429 -189 -530 -385 -66 -128 -82 -195 -82
-340 0 -137 16 -209 70 -322 93 -195 295 -355 504 -399 113 -24 281 -15 385
20 224 76 393 245 472 471 25 73 28 92 28 225 0 156 -13 218 -72 334 -143 284
-465 448 -775 396z m237 -275 c124 -33 232 -118 292 -230 42 -80 54 -131 54
-223 -1 -259 -204 -463 -462 -463 -91 -1 -144 12 -224 54 -111 59 -198 169
-230 292 -89 342 228 659 570 570z"/>
</g>
</svg>
