<?xml version="1.0" standalone="no"?>
<!DOCTYPE svg PUBLIC "-//W3C//DTD SVG 20010904//EN"
 "http://www.w3.org/TR/2001/REC-SVG-20010904/DTD/svg10.dtd">
<svg version="1.0" xmlns="http://www.w3.org/2000/svg"
 width="900.000000pt" height="920.000000pt" viewBox="0 0 900.000000 920.000000"
 preserveAspectRatio="xMidYMid meet">

<g transform="translate(0.000000,920.000000) scale(0.100000,-0.100000)"
fill="#000000" stroke="none">
<path d="M2575 9185 c-670 -70 -1239 -293 -1770 -694 -298 -225 -661 -602
-767 -796 -29 -53 -33 -69 -33 -135 0 -60 5 -84 25 -121 14 -26 365 -447 780
-935 415 -489 860 -1012 988 -1164 129 -151 244 -284 258 -295 l23 -20 -44
-390 c-24 -215 -60 -534 -79 -710 -20 -176 -51 -464 -71 -640 -20 -176 -58
-520 -85 -765 -27 -245 -70 -629 -96 -855 -25 -225 -56 -511 -70 -635 -13
-123 -26 -238 -30 -255 -9 -53 15 -166 51 -242 51 -104 132 -182 249 -237 196
-94 249 -98 1151 -94 727 4 741 4 820 26 292 80 462 272 464 522 1 119 -70
827 -184 1845 -150 1328 -180 1593 -227 1998 -35 300 -49 452 -43 461 6 8 289
360 630 782 341 423 716 888 833 1034 117 146 264 327 325 403 126 156 141
181 157 254 14 67 -6 154 -51 220 -93 134 -300 359 -473 512 -598 529 -1254
827 -2026 921 -144 18 -559 21 -705 5z m685 -570 c561 -70 1050 -279 1532
-655 113 -89 400 -370 394 -387 -3 -7 -169 -217 -369 -466 -567 -706 -936
-1165 -1105 -1374 -85 -106 -157 -191 -162 -188 -4 2 1 51 12 107 105 571 178
979 178 1000 0 91 -75 203 -165 244 -94 44 -223 27 -301 -40 -79 -67 -71 -35
-234 -936 -74 -411 -68 -380 -85 -380 -17 0 -14 -9 -105 370 -212 889 -214
894 -295 955 -78 60 -201 73 -290 31 -93 -43 -165 -153 -165 -251 0 -17 43
-206 95 -421 130 -530 157 -645 152 -651 -5 -4 -247 279 -1216 1422 -200 237
-391 461 -423 498 -32 38 -58 72 -58 78 0 13 159 179 270 281 133 123 212 185
385 300 384 256 842 423 1280 467 61 6 128 13 150 15 79 8 402 -4 525 -19z
m60 -3657 c0 -2 9 -77 20 -168 11 -91 20 -177 20 -192 l0 -28 -380 0 -380 0 0
25 c0 28 27 280 36 333 l5 32 339 0 c187 0 340 -1 340 -2z m114 -990 c4 -24
31 -261 61 -528 71 -616 143 -1245 196 -1705 92 -802 105 -930 98 -939 -4 -4
-33 -14 -66 -22 -46 -11 -194 -14 -720 -14 -615 0 -803 6 -825 28 -3 4 9 142
27 307 19 165 83 745 144 1290 61 545 126 1129 146 1300 19 170 35 313 35 317
0 4 202 8 449 8 l450 0 5 -42z"/>
<path d="M8000 9194 c-145 -28 -255 -94 -573 -346 -181 -143 -283 -218 -495
-366 -165 -115 -315 -284 -411 -462 -47 -88 -106 -258 -120 -350 -7 -42 -11
-423 -11 -1082 l0 -1016 -143 -4 c-137 -3 -145 -4 -208 -35 -80 -39 -150 -111
-187 -191 l-27 -57 0 -2400 0 -2400 33 -67 c40 -82 119 -157 200 -190 l57 -23
1277 -3 c1276 -2 1278 -2 1340 19 111 37 183 103 236 217 l27 57 0 2390 0
2390 -32 67 c-42 89 -101 151 -181 190 -58 29 -77 33 -176 38 l-110 5 -2 1570
c-1 1149 -4 1588 -13 1638 -34 200 -126 337 -259 387 -56 21 -171 33 -222 24z
m-75 -3611 c-3 -10 -109 -13 -484 -13 l-479 0 -7 353 c-3 193 -5 654 -3 1022
l3 670 27 69 c62 154 167 272 353 396 117 78 312 224 485 363 l105 85 3 -1467
c1 -806 0 -1472 -3 -1478z m515 -2698 l0 -2125 -1030 0 -1030 0 0 2125 0 2125
1030 0 1030 0 0 -2125z"/>
<path d="M7740 4481 c-71 -23 -140 -82 -176 -151 -18 -34 -19 -91 -22 -1381
l-2 -1347 33 -63 c113 -219 429 -197 509 35 16 48 17 137 18 1362 0 1452 4
1371 -66 1452 -56 66 -113 95 -198 98 -39 2 -82 0 -96 -5z"/>
</g>
</svg>
