<?xml version="1.0" standalone="no"?>
<!DOCTYPE svg PUBLIC "-//W3C//DTD SVG 20010904//EN"
 "http://www.w3.org/TR/2001/REC-SVG-20010904/DTD/svg10.dtd">
<svg version="1.0" xmlns="http://www.w3.org/2000/svg"
 width="512.000000pt" height="512.000000pt" viewBox="0 0 512.000000 512.000000"
 preserveAspectRatio="xMidYMid meet">

<g transform="translate(0.000000,512.000000) scale(0.100000,-0.100000)"
fill="#000000" stroke="none">
<path d="M2040 5114 c-14 -2 -65 -9 -115 -15 -360 -44 -743 -221 -1025 -472
-317 -282 -525 -644 -617 -1074 -26 -120 -28 -144 -28 -378 0 -269 11 -359 69
-550 155 -518 512 -951 976 -1185 33 -17 60 -33 60 -36 0 -4 -41 -211 -90
-461 -50 -250 -90 -473 -90 -495 0 -48 27 -96 67 -120 43 -25 1535 -332 1577
-324 41 8 81 38 101 76 11 20 145 811 145 853 0 4 282 7 628 7 577 0 630 1
662 18 48 24 80 75 80 127 0 24 -32 258 -70 521 -39 264 -72 489 -73 502 -2
20 34 46 263 190 290 183 310 201 310 281 0 62 -26 101 -106 158 -36 27 -186
136 -332 244 -217 159 -268 201 -274 225 -4 16 -17 100 -28 186 -35 260 -101
477 -206 677 -308 586 -879 974 -1533 1040 -97 10 -295 13 -351 5z m463 -324
c157 -31 274 -71 432 -150 438 -217 760 -628 870 -1110 8 -36 26 -155 40 -265
14 -110 30 -212 36 -227 15 -37 25 -46 309 -253 140 -102 255 -190 255 -195 0
-5 -90 -66 -200 -135 -214 -134 -250 -165 -260 -218 -5 -26 97 -776 131 -964
l6 -33 -600 0 c-401 0 -610 -4 -629 -11 -36 -13 -73 -47 -85 -79 -5 -14 -38
-202 -72 -418 -35 -216 -65 -395 -68 -397 -3 -3 -90 13 -194 35 -104 22 -364
76 -579 120 -214 44 -390 82 -391 83 -1 1 38 202 87 447 49 244 89 462 89 484
0 73 -27 98 -183 175 -219 107 -349 201 -508 369 -202 214 -344 487 -411 795
-20 89 -23 130 -23 332 1 217 2 237 29 350 77 328 214 575 450 811 266 265
567 415 946 470 135 19 384 12 523 -16z"/>
<path d="M2135 4227 c-90 -41 -263 -325 -334 -550 -17 -53 -31 -105 -31 -115
0 -10 -2 -21 -5 -24 -3 -3 -42 10 -88 28 -107 43 -230 67 -344 68 -78 1 -95
-2 -120 -20 -52 -39 -67 -77 -64 -172 5 -222 103 -471 249 -632 28 -32 52 -60
52 -63 0 -3 -47 -7 -104 -9 -87 -2 -109 -6 -133 -24 -86 -65 -86 -183 0 -248
28 -21 30 -21 970 -24 882 -2 944 -1 977 15 107 54 107 212 0 265 -26 14 -60
18 -135 18 l-99 0 41 43 c166 172 273 436 273 671 0 95 -19 135 -80 168 -30
17 -48 19 -133 13 -110 -7 -253 -40 -340 -79 -41 -18 -59 -22 -62 -13 -2 7
-13 48 -25 92 -25 96 -78 222 -137 327 -55 98 -154 232 -188 254 -34 22 -103
27 -140 11z m135 -552 c66 -161 92 -344 53 -376 -9 -8 -42 -49 -74 -91 l-57
-76 -30 46 c-17 26 -51 71 -76 100 -43 51 -45 54 -40 105 13 135 61 290 122
399 l26 46 20 -31 c10 -18 36 -72 56 -122z m-644 -416 c100 -49 200 -131 261
-212 51 -69 119 -204 129 -256 7 -32 6 -33 -17 -26 -231 69 -416 235 -500 449
-39 99 -38 107 9 94 20 -5 73 -27 118 -49z m1274 -22 c-78 -214 -251 -383
-466 -457 -32 -11 -60 -18 -63 -14 -10 10 39 137 79 204 69 115 183 225 295
283 66 34 170 67 174 56 2 -6 -7 -38 -19 -72z"/>
</g>
</svg>
