<?xml version="1.0" standalone="no"?>
<!DOCTYPE svg PUBLIC "-//W3C//DTD SVG 20010904//EN"
 "http://www.w3.org/TR/2001/REC-SVG-20010904/DTD/svg10.dtd">
<svg version="1.0" xmlns="http://www.w3.org/2000/svg"
 width="225.000000pt" height="225.000000pt" viewBox="0 0 225.000000 225.000000"
 preserveAspectRatio="xMidYMid meet">

<g transform="translate(0.000000,225.000000) scale(0.100000,-0.100000)"
fill="#000000" stroke="none">
<path d="M791 2199 c-298 -52 -546 -247 -662 -521 -67 -155 -81 -239 -86 -495
l-5 -233 106 0 106 0 0 -73 c0 -189 116 -370 285 -443 l65 -28 0 -183 0 -183
595 0 595 0 0 103 0 102 58 17 c119 35 222 160 222 269 l0 29 70 0 70 0 0 183
c0 120 -5 199 -14 232 -54 206 -221 353 -438 390 -35 5 -38 8 -38 40 l0 34
146 3 146 3 29 33 29 32 0 251 0 251 -29 29 -29 29 -258 0 -257 0 -101 49
c-56 27 -130 57 -166 66 -77 20 -355 29 -439 14z m407 -80 c46 -10 95 -25 110
-34 25 -13 18 -14 -98 -15 -182 -1 -190 -10 -190 -214 l0 -136 -395 0 c-217 0
-395 4 -395 8 0 20 68 112 129 175 199 206 521 289 839 216z m792 -129 c19
-19 20 -33 20 -234 0 -182 -2 -217 -16 -230 -13 -14 -52 -16 -275 -16 l-259 0
-67 -85 c-38 -47 -74 -85 -80 -85 -10 0 -13 24 -13 85 l0 85 -93 0 c-59 0 -97
4 -105 12 -9 9 -12 76 -12 240 0 206 2 228 18 237 11 7 171 11 440 11 409 0
423 -1 442 -20z m-970 -399 c0 -33 4 -71 10 -85 16 -42 66 -66 138 -66 l62 0
0 -60 c0 -51 4 -65 25 -85 13 -14 35 -25 48 -25 16 0 28 -9 36 -26 10 -22 8
-29 -14 -56 -38 -45 -63 -99 -80 -170 -12 -50 -15 -148 -15 -490 l0 -428 -280
0 -280 0 0 145 0 145 140 0 140 0 0 34 0 34 -162 4 c-160 3 -164 4 -229 35
-80 39 -169 130 -205 207 -26 58 -48 198 -42 272 l3 44 -107 0 -108 0 0 93 c1
190 32 401 74 502 l15 35 415 0 416 0 0 -59z m630 -185 c0 -33 -2 -35 -52 -45
-59 -13 -126 -41 -168 -71 -27 -19 -29 -19 -38 -3 -8 13 2 31 45 85 l55 68 79
0 79 0 0 -34z m155 -122 c33 -8 80 -27 104 -41 49 -28 131 -100 131 -114 0 -5
-92 -9 -205 -9 -228 0 -253 -5 -313 -63 -60 -57 -75 -99 -80 -222 -5 -130 -23
-173 -88 -211 -22 -13 -44 -24 -47 -24 -4 0 -7 82 -7 183 0 203 9 253 61 338
49 79 144 148 233 170 54 12 149 10 211 -7z m305 -267 c26 -59 40 -154 40
-279 l0 -108 -69 0 -69 0 -7 -67 c-12 -112 -55 -178 -145 -223 -39 -20 -64
-24 -197 -28 l-153 -5 0 -28 0 -29 105 0 105 0 0 -75 0 -75 -210 0 -210 0 0
215 0 214 43 13 c56 16 138 98 155 154 7 23 12 81 12 130 0 130 39 196 131
222 19 6 128 11 242 11 l208 1 19 -43z"/>
<path d="M1194 1826 c-40 -40 -44 -75 -15 -122 48 -79 170 -57 187 33 13 68
-35 123 -107 123 -22 0 -41 -10 -65 -34z m103 -52 c8 -22 -10 -49 -32 -49 -10
0 -22 7 -28 16 -15 24 -1 49 28 49 15 0 28 -7 32 -16z"/>
<path d="M1481 1834 c-60 -50 -46 -140 26 -170 46 -20 86 -10 118 28 81 96
-48 223 -144 142z m94 -73 c0 -34 -30 -51 -51 -29 -25 24 -10 60 24 56 21 -2
27 -8 27 -27z"/>
<path d="M1762 1835 c-60 -50 -47 -142 24 -171 47 -20 87 -11 119 28 82 97
-46 225 -143 143z m96 -77 c2 -19 -2 -28 -18 -33 -37 -12 -64 27 -38 53 21 21
53 10 56 -20z"/>
<path d="M320 1310 c0 -60 75 -135 146 -146 88 -13 178 50 198 139 6 25 4 27
-29 27 -29 0 -36 -4 -41 -25 -9 -35 -59 -75 -95 -75 -52 0 -108 43 -109 83 0
13 -8 17 -35 17 -29 0 -35 -4 -35 -20z"/>
<path d="M1720 833 c0 -24 45 -92 72 -107 40 -24 108 -25 143 -2 30 20 65 73
65 99 0 26 -66 24 -73 -2 -2 -10 -16 -26 -30 -35 -33 -22 -75 -11 -96 25 -12
23 -23 29 -48 29 -18 0 -33 -3 -33 -7z"/>
</g>
</svg>
