<?xml version="1.0" standalone="no"?>
<!DOCTYPE svg PUBLIC "-//W3C//DTD SVG 20010904//EN"
 "http://www.w3.org/TR/2001/REC-SVG-20010904/DTD/svg10.dtd">
<svg version="1.0" xmlns="http://www.w3.org/2000/svg"
 width="225.000000pt" height="225.000000pt" viewBox="0 0 225.000000 225.000000"
 preserveAspectRatio="xMidYMid meet">

<g transform="translate(0.000000,225.000000) scale(0.100000,-0.100000)"
fill="#000000" stroke="none">
<path d="M975 2239 c-169 -21 -382 -107 -516 -208 -144 -109 -261 -249 -339
-406 -276 -557 -50 -1230 505 -1505 557 -276 1230 -50 1505 505 276 557 50
1230 -505 1505 -204 101 -422 137 -650 109z m785 -1104 l0 -455 -635 0 -635 0
0 455 0 455 635 0 635 0 0 -455z"/>
<path d="M560 1487 c0 -32 6 -36 279 -206 154 -95 284 -172 288 -172 4 0 133
78 285 173 271 169 278 174 278 206 l0 32 -565 0 -565 0 0 -33z"/>
<path d="M1550 1285 c-76 -48 -134 -91 -134 -99 1 -8 62 -91 135 -184 l134
-171 3 135 c1 74 1 195 0 269 l-3 134 -135 -84z"/>
<path d="M560 1093 c0 -226 2 -265 14 -253 7 8 72 90 145 182 l131 168 -43 27
c-125 79 -232 143 -239 143 -4 0 -8 -120 -8 -267z"/>
<path d="M757 958 c-82 -104 -147 -192 -144 -194 2 -2 235 -3 519 -2 l514 3
-149 190 c-82 105 -152 191 -156 193 -4 1 -53 -27 -109 -63 -84 -53 -106 -63
-122 -55 -10 6 -58 35 -107 65 -48 30 -89 55 -92 54 -4 0 -73 -86 -154 -191z"/>
</g>
</svg>
