<?xml version="1.0" standalone="no"?>
<!DOCTYPE svg PUBLIC "-//W3C//DTD SVG 20010904//EN"
 "http://www.w3.org/TR/2001/REC-SVG-20010904/DTD/svg10.dtd">
<svg version="1.0" xmlns="http://www.w3.org/2000/svg"
 width="512.000000pt" height="512.000000pt" viewBox="0 0 512.000000 512.000000"
 preserveAspectRatio="xMidYMid meet">

<g transform="translate(0.000000,512.000000) scale(0.100000,-0.100000)"
fill="#000000" stroke="none">
<path d="M2335 4799 c-244 -23 -527 -105 -760 -218 -456 -223 -812 -579 -1036
-1036 -545 -1113 -80 -2461 1036 -3006 1116 -544 2462 -81 3005 1036 38 77 83
181 100 230 289 829 81 1738 -538 2353 -473 470 -1134 704 -1807 641z m837
-1003 c305 -60 530 -267 615 -567 17 -59 18 -113 18 -669 0 -556 -1 -610 -18
-669 -78 -275 -277 -475 -552 -557 -54 -16 -120 -18 -629 -21 -602 -4 -655 -1
-779 42 -207 72 -397 259 -467 460 -47 134 -50 174 -50 745 0 581 3 617 54
754 92 245 312 429 576 481 99 20 1131 20 1232 1z"/>
<path d="M1963 3515 c-179 -48 -311 -183 -358 -362 -12 -47 -15 -150 -15 -590
0 -349 4 -550 11 -585 38 -183 194 -339 379 -378 39 -8 215 -11 615 -8 l560 3
66 28 c127 54 239 170 284 297 19 52 20 87 23 605 2 382 0 568 -8 610 -35 183
-178 332 -365 380 -84 21 -1112 21 -1192 0z m1339 -204 c28 -25 33 -36 33 -76
0 -40 -5 -51 -33 -76 -61 -54 -147 -31 -172 47 -34 102 91 178 172 105z m-615
-127 c228 -47 407 -207 480 -429 22 -68 27 -98 27 -195 0 -98 -5 -127 -27
-196 -64 -194 -217 -347 -411 -411 -112 -37 -267 -39 -376 -5 -460 143 -610
707 -280 1052 155 161 371 229 587 184z"/>
<path d="M2462 2935 c-283 -80 -383 -424 -184 -637 113 -121 269 -156 428 -97
82 31 182 130 214 214 33 84 33 206 0 290 -33 84 -132 183 -215 214 -77 29
-174 35 -243 16z"/>
</g>
</svg>
