<?xml version="1.0" encoding="utf-8"?>
<!-- Generator: Adobe Illustrator 26.0.0, SVG Export Plug-In . SVG Version: 6.00 Build 0)  -->
<svg version="1.1" id="Capa_1" xmlns="http://www.w3.org/2000/svg" xmlns:xlink="http://www.w3.org/1999/xlink" x="0px" y="0px"
	 viewBox="0 0 96.83 62.23" style="enable-background:new 0 0 96.83 62.23;" xml:space="preserve">
<g transform="translate(0.000000,294.000000) scale(0.100000,-0.100000)">
	<path d="M203.65,2782.28c-22.86-5.64-48.46-19.59-80.29-43.83c-11.57-8.8-21.41-16.77-21.7-17.43c-0.43-0.66,5.64,1.33,13.31,4.32
		c30.81,12.45,69.58,22.25,97.21,24.74c20.11,1.66,43.98-4.98,81.01-22.91c18.23-8.8,62.93-34.53,84.19-48.31
		c9.4-6.14,17.36-11.12,17.79-11.12c0.43,0,0,1.66-0.87,3.82c-1.59,3.65-1.59,3.65,2.17-0.33c4.48-4.81,4.63-3.65,0.72,9.13
		c-1.59,5.31-3.04,13.61-3.18,18.43c-0.29,6.47-0.72,8.13-2.03,6.81c-1.01-1-1.88-2.99-1.88-4.48c-0.14-2.16-0.29-2.16-1.59,0.5
		c-0.87,1.66-1.3,5.64-0.87,8.63c1.01,7.14-1.3,5.81-4.34-2.49l-2.31-5.98l-5.21,12.29l-5.21,12.45l-28.21,14.61
		c-62.2,32.54-85.64,41.17-114.28,42.17C218.12,2783.61,207.12,2783.11,203.65,2782.28z"/>
	<path d="M717.05,2780.78c-21.84-5.31-48.03-16.93-99.09-43.66l-20.25-10.62l-5.21-12.45l-5.21-12.29l-2.31,5.98
		c-3.04,8.3-5.35,9.63-4.34,2.49c0.43-2.99,0-6.97-0.87-8.63c-1.3-2.66-1.45-2.66-1.59-0.5c0,1.49-0.87,3.49-1.74,4.48
		c-1.45,1.33-1.88-0.33-2.17-6.81c-0.14-4.81-1.59-13.12-3.18-18.43c-3.91-12.78-3.76-13.95,0.72-9.13
		c3.76,3.98,3.76,3.98,2.17,0.33c-0.87-2.16-1.3-3.82-0.87-3.82c0.43,0,8.39,4.98,17.79,11.12c21.12,13.78,65.82,39.51,84.19,48.31
		c37.03,17.93,60.9,24.57,81.01,22.91c27.63-2.49,66.4-12.29,97.21-24.74c7.67-2.99,13.74-4.98,13.31-4.32
		c-1.74,3.49-44.7,34.7-59.02,43C774.34,2783.27,747.87,2788.25,717.05,2780.78z"/>
	<path d="M128.43,2671.88c-0.14-17.43,7.52-42.5,17.65-57.61c7.09-10.62,4.63-10.13-4.34,0.83c-9.26,11.12-18.37,26.73-24.45,41.67
		c-5.21,12.78-6.08,12.12-2.75-2.32c6.8-29.72,25.6-55.78,49.91-69.23c10.56-5.98,10.7-6.14,6.51-7.47
		c-2.46-0.83-9.55-1.83-15.91-2.49l-11.57-1.16l7.96-2.82c4.34-1.66,12.73-3.82,18.52-4.98l10.42-1.99l-5.5-5.48
		c-5.06-4.81-15.91-24.9-14.47-26.4c0.29-0.5,3.04,2.99,5.93,7.47c5.64,8.63,14.76,16.6,22.57,19.59c7.23,2.82,8.68,2.49,3.76-1
		c-5.35-3.82-12.87-13.45-16.06-20.75c-2.31-5.15-2.17-4.98,4.77,2.32c7.67,8.3,10.56,10.46,16.64,12.12l3.91,1l-3.62-4.48
		c-3.91-4.98-6.8-10.46-8.53-16.77c-0.72-2.99,0.43-2.32,5.64,3.49c3.47,3.98,8.53,8.3,10.99,9.46c3.91,1.83,4.92,1.83,6.94-0.66
		c1.3-1.49,1.59-2.66,0.87-2.66c-2.03,0-8.97-7.8-10.99-12.29c-1.3-2.66-0.58-2.32,3.18,1.16c7.38,7.3,12.59,9.8,15.77,7.97
		c2.6-1.66,2.6-1.99,0.14-7.97c-1.45-3.49-3.04-8.96-3.47-12.12l-0.87-5.81l2.89,6.81c3.76,8.63,8.82,14.28,11.28,12.45
		c1.3-0.83,1.45-2.49,0.14-6.31c-0.72-2.82-1.3-7.97-1.01-11.62l0.58-6.31l1.01,4.98c2.46,10.79,5.06,15.61,8.1,14.61
		c2.46-0.66,2.6-1.49,1.3-5.64c-1.01-3.15-1.01-6.81,0-11.12l1.45-6.14l0.14,7.64c0.14,9.46,2.6,13.28,7.09,11.29
		c2.6-1.16,3.18-2.66,3.33-9.3l0.14-7.97l1.59,7.14c1.3,6.64,1.74,7.14,5.21,6.31c25.46-6.14,47.16-4.81,66.54,4.15
		c14.47,6.64,29.94,9.3,41.95,6.97c7.81-1.33,8.82-1.33,6.65,0.5c-1.45,1.16-5.93,2.99-9.98,3.98c-6.22,1.49-10.42,1-26.33-2.32
		c-18.23-3.98-49.33-7.8-35.73-4.32c18.37,4.48,31.97,20.42,34.43,40.34l1.01,7.8l6.8-4.15c3.62-2.32,12.44-9.46,19.38-15.94
		c13.45-12.29,14.76-15.44,8.25-19.26l-3.62-2.16h4.63c2.89,0,5.21,1,5.93,2.82c1.16,2.32,2.17,1.99,8.1-3.65
		c3.62-3.32,6.65-5.64,6.65-4.98c0,2.99-17.36,26.89-27.49,37.85c-12.73,13.78-30.23,25.23-49.91,32.71
		c-13.02,4.98-13.89,6.47-10.27,18.43l2.17,7.3l-3.47-4.65c-1.88-2.49-3.91-7.14-4.48-10.29c-1.74-10.62-8.25-4.81-8.25,7.47
		c0,9.63,1.59,13.28,5.79,13.28c13.02,0,46.29-14.94,64.08-28.72c4.77-3.65,5.79-4.15,3.76-1.49c-4.63,5.98-23.58,20.25-36.02,26.89
		c-12.73,6.81-28.79,12.29-41.95,14.11c-4.63,0.66-8.25,1.49-8.25,1.83c0,0.5,1.01,3.49,2.17,6.81c3.04,8.3,2.17,8.3-2.89-0.33
		c-3.76-6.31-5.06-7.47-9.26-7.47c-5.21,0-5.35,0.83-2.46,12.45c0.58,1.83-0.58-0.17-2.31-4.48c-2.89-6.97-3.91-7.97-7.96-7.97
		c-2.46,0-5.5-0.5-6.8-1c-2.17-1-2.17,0.17,1.3,11.79c0.43,1.83-0.58,0.33-2.17-3.32c-6.51-13.78-10.99-14.28-12.44-1.16
		c-0.87,7.64-1.3,8.63-2.17,5.31c-0.58-2.32-1.01-6.97-1.16-10.29c-0.14-3.49-0.72-6.31-1.45-6.31c-0.72,0-2.31-0.5-3.62-1
		c-2.03-0.83-2.31,1.16-2.46,15.27c-0.14,16.27-0.14,16.44-2.31,10.62c-1.3-3.15-2.6-11.12-3.04-17.76
		c-0.72-12.78-3.47-17.27-6.08-9.63c-2.03,5.98-4.2,28.39-3.33,32.87c0.43,1.99,0.43,3.15-0.14,2.66
		c-2.6-2.82-5.21-19.92-4.92-31.71c0.14-6.97,0-13.28-0.58-13.78c-1.01-1.33-7.52,14.11-9.98,24.07c-1.74,6.81-1.88,6.97-2.46,2.82
		c-0.43-4.65,1.59-22.25,3.33-28.55c0.43-1.83-0.43-0.66-2.03,2.49c-3.76,7.64-7.52,20.09-9.55,32.37l-1.74,9.96l-1.16-11.62
		c-1.3-12.95,0.43-29.05,4.2-37.52c3.76-8.63,2.6-7.97-2.75,1.83c-6.22,10.96-10.56,23.91-13.02,38.18l-1.74,10.79l-1.16-7.97
		c-2.03-15.27,1.74-33.54,10.42-49.31c4.63-8.3,4.77-8.8,1.3-4.98c-7.67,7.97-18.23,38.35-18.23,52.3c0,3.82-0.43,4.32-1.45,2.49
		c-3.62-6.31-0.72-33.04,4.92-46.48l2.46-5.81l-3.76,4.98c-8.97,12.29-19.53,42.83-19.53,57.28c-0.14,4.98-0.29,5.31-1.74,2.66
		c-2.17-4.48-0.72-33.54,2.31-41.5c1.3-3.65,2.03-6.81,1.74-7.3c-1.16-1.33-13.74,30.38-16.64,42l-2.89,11.62V2671.88z
		 M253.41,2624.73c0-5.98,0.87-9.63,3.47-13.78c3.47-5.48,3.47-5.48,0.14-2.16c-5.93,5.98-10.13,24.07-5.35,24.07
		C252.84,2632.86,253.41,2630.21,253.41,2624.73z M262.53,2624.4c1.01-4.65,3.04-10.62,4.77-13.28c1.59-2.66,2.31-4.81,1.59-4.81
		c-3.62,0-10.42,14.44-10.42,22.41C258.48,2635.69,260.79,2633.36,262.53,2624.4z M273.81,2625.39c0.14-4.15,1.59-9.79,3.18-13.12
		c1.74-3.32,2.6-5.98,1.88-5.98c-2.6,0-10.42,10.96-11.72,16.44c-2.17,8.97-1.88,10.13,2.6,10.13
		C273.38,2632.86,273.67,2632.36,273.81,2625.39z M292.47,2630.04c-3.47-9.8-3.76-12.12-2.31-17.93c1.16-5.15,1.16-5.98-1.01-5.48
		c-3.47,0.83-8.97,12.78-8.97,20.09v6.14h6.65C292.62,2632.86,293.34,2632.53,292.47,2630.04z M245.31,2626.72
		c0-4.15-0.14-4.32-1.3-1.33c-1.74,4.48-1.74,5.81,0,5.81C244.88,2631.2,245.46,2629.21,245.31,2626.72z M236.63,2621.74
		c0.87-3.49,2.89-8.8,4.48-11.79c3.47-6.47,3.62-8.13,0.58-5.31c-2.6,2.66-8.53,14.11-9.98,19.59c-0.72,2.66-0.29,3.65,1.3,3.65
		C234.32,2627.88,235.77,2625.39,236.63,2621.74z M226.94,2617.59c1.45-3.82,2.31-7.14,2.17-7.47c-1.01-1-8.1,11.62-7.38,13.12
		C223.18,2625.89,224.48,2624.4,226.94,2617.59z M200.47,2590.2c0.29-0.33-0.14-0.5-1.01-0.5c-1.01,0-3.76,2.32-6.37,5.15
		l-4.77,5.15l5.79-4.65C197.29,2592.69,200.18,2590.53,200.47,2590.2z M282.06,2586.21c1.3-0.83,2.46-2.99,2.46-4.81
		c0-3.65-6.51-9.96-10.27-9.96c-1.59,0-2.75-1.16-2.75-2.49c0-1.49,0.87-1.99,2.17-1.49c3.33,1.49,6.65-2.49,5.64-6.81
		c-0.72-3.15,0-4.15,4.34-5.98c4.05-1.66,5.21-2.99,5.21-6.47c0.14-3.98,0.14-3.98,1.74-0.83c3.18,6.64,5.93,7.3,8.1,2.16l1.59-3.82
		v3.65c0.14,5.48,2.75,6.14,5.93,1.83l2.89-3.82l-1.45,4.81c-1.3,3.98-1.01,5.15,1.3,6.97c1.45,1.16,3.76,5.15,4.92,8.63
		c3.33,9.3,10.56,11.79,14.61,4.98c2.89-4.81,3.04-8.63,0.14-7.3c-1.16,0.5-3.33,1.49-4.63,2.16c-1.59,0.66-0.87-0.66,1.3-2.99
		c3.47-3.49,3.76-4.32,2.03-6.97c-2.03-2.99-2.17-2.99-6.22-0.17l-4.05,2.99l3.33-4.15l3.18-4.32l-2.89-2.99
		c-1.59-1.66-3.18-2.66-3.33-2.32c-5.21,7.97-6.8,9.96-6.8,8.8c0-0.83,1.3-3.65,2.75-6.31c2.75-4.65,2.75-5.15,0.43-7.14
		c-3.91-3.32-5.35-2.66-8.1,3.82c-3.18,7.8-4.48,6.31-1.59-1.83c2.6-6.97,2.75-6.81-2.46-8.3c-3.62-1-3.91-0.66-5.21,6.14
		l-1.45,7.14l-0.14-7.3c-0.14-6.64-0.43-7.14-3.33-6.14c-1.88,0.5-4.2,1-5.06,1c-1.01,0-1.88,1.99-2.03,4.65
		c0,4.32-0.14,4.32-1.3,0.83c-0.72-2.16-2.03-3.82-2.75-3.82c-3.04,0-3.04,3.65-0.14,9.63l3.18,6.14l-4.77-6.31
		c-4.63-5.81-5.06-6.14-7.81-3.82c-2.89,2.32-2.89,2.49,1.45,7.8l4.34,5.48l-5.21-4.48c-5.06-4.15-5.35-4.32-7.67-1.33
		s-2.17,3.32,2.31,7.64l4.77,4.48l-5.35-3.32c-3.04-1.99-5.5-3.32-5.5-2.82c0,0.33-0.43,1.66-0.87,3.15
		c-0.58,1.83,0.58,3.32,3.91,5.15l4.92,2.49l-5.79-0.33c-5.64-0.5-5.79-0.5-5.79,5.31c0,4.65,0.58,5.81,3.62,6.81l3.62,1.16
		l-3.47,0.17c-3.33,0.17-3.33,0.33-1.01,3.32c1.88,2.49,4.48,3.15,11.43,3.15C275.4,2587.71,280.61,2587.04,282.06,2586.21z
		 M249.22,2574.26c0.14-19.42,10.7-35.69,28.79-43.83c3.18-1.33,3.62-1.99,1.45-1.99c-4.2-0.17-21.27,7.14-28.93,12.12
		c-15.62,10.62-33.56,30.38-30.52,33.7c0.58,0.66,25.6,9.63,28.35,10.29C248.79,2584.55,249.08,2580.07,249.22,2574.26z
		 M286.98,2527.28c-0.43-0.5-1.74-0.66-2.75-0.17c-1.16,0.5-0.72,1,0.87,1C286.69,2528.27,287.55,2527.77,286.98,2527.28z"/>
	<path d="M837.56,2671.54c-2.17-10.79-9.4-30.88-14.32-39.51c-2.03-3.65-3.18-5.15-2.6-3.32c4.77,15.44,6.65,41.5,3.47,47.31
		c-1.01,1.83-1.45,1-1.45-3.32c0-14.44-10.56-44.99-19.53-57.28l-3.76-4.98l2.46,5.81c5.64,13.45,8.53,40.18,4.92,46.48
		c-1.01,1.83-1.45,1.33-1.45-2.49c0-13.95-10.7-44.33-18.23-52.3c-3.76-3.98-3.76-3.82,0.58,3.15c8.82,13.95,13.31,36.03,10.7,51.63
		c-1.45,8.3-1.45,8.3-4.77-11.46c-1.88-11.12-10.85-34.37-14.61-38.02c-1.74-1.66-1.59-0.5,0.58,4.48
		c4.2,9.79,6.08,25.57,4.77,39.18l-1.16,11.62l-1.88-10.79c-1.88-11.46-6.37-26.4-10.13-33.2c-1.59-2.82-1.88-3.15-1.3-0.83
		c1.74,6.14,3.76,23.91,3.33,28.55c-0.58,4.15-0.72,3.98-2.46-2.82c-2.46-9.96-8.97-25.4-9.98-24.07c-0.58,0.5-0.72,6.81-0.58,13.78
		c0.29,11.79-2.31,28.89-4.92,31.71c-0.58,0.5-0.58-0.66-0.14-2.66c0.87-4.48-1.3-26.89-3.33-32.87c-2.6-7.64-5.35-3.15-6.08,9.63
		c-0.43,6.64-1.74,14.61-3.04,17.76c-2.17,5.81-2.17,5.64-2.31-10.62c-0.14-14.11-0.43-16.1-2.46-15.27c-1.3,0.5-2.89,1-3.62,1
		s-1.3,2.82-1.45,6.31c-0.14,3.32-0.58,7.97-1.16,10.29c-0.87,3.32-1.3,2.32-2.17-5.31c-1.45-13.12-5.93-12.62-12.44,1.16
		c-1.59,3.65-2.6,5.15-2.17,3.32c3.47-11.62,3.47-12.78,1.3-11.79c-1.3,0.5-4.34,1-6.8,1c-4.05,0-5.06,1-7.96,7.97
		c-1.74,4.32-2.89,6.31-2.31,4.48c2.89-11.62,2.75-12.45-2.46-12.45c-4.2,0-5.5,1.16-9.26,7.47c-5.06,8.63-5.93,8.63-2.89,0.33
		c1.16-3.32,2.17-6.31,2.17-6.81c0-0.33-3.62-1.16-8.25-1.83c-13.16-1.83-29.22-7.3-41.95-14.11
		c-12.44-6.64-31.39-20.92-36.02-26.89c-2.03-2.66-1.01-2.16,3.76,1.49c17.79,13.78,51.07,28.72,64.08,28.72
		c4.2,0,5.79-3.65,5.79-13.28c0-12.29-6.51-18.1-8.25-7.47c-0.58,3.15-2.6,7.8-4.48,10.29l-3.47,4.65l2.17-7.3
		c3.62-11.95,2.75-13.45-10.27-18.43c-19.67-7.47-37.18-18.93-49.91-32.71c-10.13-10.96-27.49-34.86-27.49-37.85
		c0-0.66,3.04,1.66,6.65,4.98c5.93,5.64,6.94,5.98,8.1,3.65c0.72-1.83,3.04-2.82,5.93-2.82h4.63l-3.62,2.16
		c-6.65,3.82-5.21,6.97,7.96,18.93c6.8,6.14,15.48,13.28,19.38,15.77l7.09,4.65l1.01-7.8c2.46-19.92,16.06-35.86,34.43-40.34
		c13.6-3.49-17.5,0.33-35.73,4.32c-15.91,3.32-20.11,3.82-26.33,2.32c-4.05-1-8.53-2.82-9.98-3.98c-2.17-1.83-1.16-1.83,6.65-0.5
		c12.01,2.32,27.49-0.33,41.95-6.97c19.38-8.96,41.08-10.29,66.54-4.15c3.47,0.83,3.91,0.33,5.21-6.31l1.59-7.14l0.14,7.97
		c0.14,6.64,0.72,8.13,3.47,9.3c4.34,1.99,6.8-1.83,6.94-11.29l0.14-7.64l1.45,6.14c1.01,4.32,1.01,7.97,0,11.12
		c-1.3,4.15-1.16,4.98,1.3,5.64c3.04,1,5.64-3.82,8.1-14.61l1.01-4.98l0.58,6.31c0.29,3.65-0.29,8.8-1.01,11.62
		c-1.3,3.82-1.16,5.48,0.14,6.31c2.46,1.83,7.52-3.82,11.14-12.45l3.04-6.81l-0.87,6.64c-0.43,3.65-2.17,9.13-3.62,11.95
		c-2.6,5.31-2.6,5.48,0.14,7.14c3.33,1.99,8.39-0.5,16.06-7.8l4.77-4.65l-2.89,5.48c-1.45,3.15-4.48,6.81-6.65,8.3
		c-4.77,3.15-5.06,4.65-1.16,6.14c3.76,1.33,10.42-2.82,17.65-11.12c4.77-5.48,5.64-5.98,4.77-2.66
		c-1.74,6.31-4.48,11.79-8.53,16.77c-7.81,9.63,6.51,2.49,16.64-8.3c7.09-7.47,7.38-7.64,5.06-2.66
		c-3.18,7.3-10.7,16.93-16.06,20.75c-4.92,3.49-3.47,3.82,3.76,1.16c7.38-2.99,18.08-12.45,23.29-20.75
		c2.46-3.98,4.77-6.97,5.21-6.64c1.45,1.66-9.4,21.58-14.47,26.56l-5.5,5.48l10.42,1.99c5.79,1.16,14.18,3.32,18.52,4.98l7.96,2.82
		l-11.57,1.16c-6.37,0.66-13.45,1.66-15.91,2.49c-4.2,1.33-4.05,1.49,6.51,7.47c24.3,13.45,43.11,39.51,49.91,69.23
		c3.33,14.44,2.46,15.11-2.75,2.32c-6.08-14.94-15.19-30.55-24.45-41.67c-8.97-10.96-11.43-11.46-4.34-0.83
		c10.27,15.44,18.37,42.17,17.5,58.11l-0.43,7.47L837.56,2671.54z M688.12,2626.72c0-7.3-5.5-19.26-8.97-20.09
		c-2.17-0.5-2.17,0.33-1.01,5.48c1.45,5.81,1.16,8.13-2.31,17.93c-0.87,2.49-0.14,2.82,5.64,2.82h6.65V2626.72z M702.59,2629.71
		c0-5.64-2.89-12.45-7.67-17.93c-5.93-7.14-7.52-6.97-3.62,0.5c1.59,3.32,3.04,8.96,3.18,13.12c0.14,6.97,0.43,7.47,4.2,7.47
		C701.57,2632.86,702.59,2632.03,702.59,2629.71z M709.82,2628.71c0-7.97-6.8-22.41-10.42-22.41c-0.72,0,0,2.16,1.59,4.81
		c1.74,2.66,3.76,8.63,4.77,13.28C707.51,2633.36,709.82,2635.69,709.82,2628.71z M718.5,2627.88c0-6.81-3.18-14.94-7.23-19.09
		c-3.33-3.32-3.33-3.32,0.14,2.16c2.6,4.15,3.47,7.8,3.47,13.78c0,5.48,0.58,8.14,1.88,8.14
		C717.78,2632.86,718.5,2630.7,718.5,2627.88z M725.59,2630.04c0-0.83-0.58-2.82-1.3-4.65c-1.16-2.99-1.3-2.82-1.3,1.33
		c-0.14,2.49,0.58,4.48,1.3,4.48C725.15,2631.2,725.73,2630.7,725.59,2630.04z M736.58,2624.23c-1.45-5.48-7.38-16.93-9.98-19.59
		c-3.04-2.82-2.89-1.16,0.58,5.31c1.59,2.99,3.62,8.3,4.48,11.79c0.87,3.65,2.31,6.14,3.62,6.14
		C736.87,2627.88,737.31,2626.89,736.58,2624.23z M746.56,2623.23c0.72-1.49-6.37-14.11-7.38-13.12c-0.29,0.33,0.43,2.82,1.74,5.48
		c1.16,2.66,2.17,5.81,2.17,6.97C743.09,2624.89,745.41,2625.23,746.56,2623.23z M665.55,2585.38c3.33-3.65,0.58-8.47-6.65-12.29
		c-5.35-2.66-5.64-3.15-2.46-3.65c2.75-0.33,3.47-1.49,3.33-5.48c0-2.66,0.43-5.48,1.16-5.98c0.72-0.5,0.58-3.15-0.29-5.81
		l-1.45-4.81l2.89,3.82c3.18,4.32,5.79,3.65,5.93-1.83v-3.65l1.59,3.82c2.17,5.15,4.92,4.48,8.1-2.16c1.59-3.15,1.59-3.15,1.74,0.83
		c0.14,5.31,11.28,12.12,15.48,9.3c2.31-1.33,2.31-1.16,0.72,1c-1.45,2.16-1.45,3.65,0.72,8.63c1.88,4.81,3.18,5.98,6.8,6.14
		l4.48,0.17l-4.77,1.83c-4.2,1.49-4.77,2.32-4.34,6.81c0.29,4.15,1.16,5.31,4.2,5.64c2.31,0.33,4.92-0.66,6.51-2.49
		c2.46-2.82,2.46-2.99-2.46-3.65l-4.92-0.66l5.06-1c4.63-1,5.06-1.49,5.06-6.81c0-5.81,0-5.81-5.79-5.31l-5.79,0.33l4.77-2.49
		c4.92-2.49,5.06-2.66,3.76-6.31c-0.72-2.16-1.59-1.99-5.79,0.83c-2.75,1.83-5.5,2.99-5.93,2.32c-0.58-0.5-0.29-1,0.58-1
		s3.18-1.66,5.35-3.49c3.76-3.32,3.76-3.65,1.45-6.64s-2.6-2.82-7.67,1.33l-5.21,4.48l4.34-5.48c4.34-5.31,4.34-5.48,1.45-7.8
		c-2.75-2.32-3.18-1.99-7.81,3.82l-4.77,6.31l3.18-6.14c2.89-5.98,2.89-9.63-0.14-9.63c-0.72,0-2.03,1.66-2.75,3.82
		c-1.16,3.49-1.3,3.49-1.3-0.83c-0.14-2.66-1.01-4.65-1.88-4.65c-1.01,0-3.33-0.5-5.06-1c-3.04-1-3.33-0.5-3.47,6.14l-0.14,7.3
		l-1.45-7.14c-1.3-6.81-1.59-7.14-5.21-6.14c-5.21,1.49-5.06,1.33-2.46,8.3c2.89,8.13,1.59,9.63-1.59,1.83
		c-2.75-6.47-3.62-6.97-7.81-3.98c-2.75,1.99-2.75,2.16,0.14,7.97l3.04,5.81l-3.91-4.81c-3.62-4.48-3.91-4.65-6.65-1.66
		c-2.75,2.82-2.75,2.99,0.43,7.14l3.33,4.15l-4.05-2.99c-4.05-2.82-4.2-2.82-6.22,0.17c-1.74,2.66-1.45,3.49,2.03,6.97
		c2.17,2.32,2.89,3.65,1.45,2.99s-3.62-1.66-4.77-2.16c-1.3-0.66-2.17-0.17-2.17,1.16c0,3.49,8.53,17.1,12.01,19.26
		C653.98,2588.7,662.95,2588.54,665.55,2585.38z M733.4,2579.9c7.81-2.66,14.61-5.15,14.9-5.64c1.88-2.16-4.05-10.79-13.45-19.42
		c-13.31-12.45-20.98-17.6-33.42-22.58c-12.87-5.15-17.5-4.98-7.52,0.33c15.77,8.3,24.88,23.57,25.17,41.67
		c0.14,5.81,0.14,10.46,0.14,10.46S725.59,2582.56,733.4,2579.9z M684.79,2527.28c-0.43-0.5-1.74-0.66-2.75-0.17
		c-1.16,0.5-0.72,1,0.87,1C684.5,2528.27,685.37,2527.77,684.79,2527.28z"/>
</g>
</svg>
