<?xml version="1.0" standalone="no"?>
<!DOCTYPE svg PUBLIC "-//W3C//DTD SVG 20010904//EN"
 "http://www.w3.org/TR/2001/REC-SVG-20010904/DTD/svg10.dtd">
<svg version="1.0" xmlns="http://www.w3.org/2000/svg"
 width="512.000000pt" height="512.000000pt" viewBox="0 0 512.000000 512.000000"
 preserveAspectRatio="xMidYMid meet">

<g transform="translate(0.000000,512.000000) scale(0.100000,-0.100000)"
fill="#000000" stroke="none">
<path d="M2263 4944 c-1060 -128 -1915 -957 -2078 -2014 -23 -147 -31 -451
-16 -592 43 -390 168 -752 367 -1056 40 -61 64 -109 62 -120 -3 -9 -101 -234
-218 -500 -117 -266 -210 -485 -207 -488 3 -3 248 78 544 180 296 102 545 186
552 186 7 0 61 -27 121 -61 270 -151 591 -254 902 -288 137 -15 423 -14 558 3
530 66 989 285 1371 654 324 312 554 702 658 1118 78 310 97 586 60 894 -83
706 -493 1349 -1107 1737 -212 134 -530 263 -769 312 -244 50 -561 64 -800 35z
m-368 -1426 c171 -227 311 -415 313 -419 1 -3 -30 -46 -70 -95 -41 -49 -90
-110 -111 -135 l-37 -46 64 -84 c157 -208 322 -364 510 -484 68 -43 291 -160
322 -169 17 -5 37 15 120 116 54 67 104 128 110 136 9 12 89 -26 478 -223
l467 -237 -17 -27 c-141 -216 -305 -445 -350 -488 -207 -193 -556 -222 -978
-82 -357 118 -720 348 -1035 654 -284 276 -489 580 -580 862 -41 127 -54 201
-55 323 0 123 13 188 61 289 31 65 61 100 250 297 118 123 218 224 221 224 4
-1 147 -186 317 -412z"/>
</g>
</svg>
